#!OML:ASF F:\VICON\USERDATA\INSTALL\Justin_Nancy\Justin_Nancy.ASF
:FULLY-SPECIFIED
:DEGREES
17
root 0.604559 16.3629 -29.9272 21.457 -6.01661 -4.6555
lowerback 11.6354 3.42242 2.35989
upperback 0.64116 4.90652 1.11687
thorax -5.74081 2.35461 -0.95131
lowerneck -15.7474 -4.8121 -9.51701
upperneck 6.60115 -5.55417 9.74805
head 5.08864 -2.34655 4.10458
rclavicle 3.97569e-014 1.59028e-015
rhumerus -35.6596 13.1098 -93.5814
rradius 90.0908
rwrist -12.2564
rhand -15.9077 24.5998
rfingers 7.12502
rthumb 10.2892 -5.12848
lclavicle 3.97569e-014 1.59028e-015
lhumerus -59.6217 -1.58442 85.1504
lradius 85.0268
lwrist 11.2032
lhand -17.2886 22.7834
lfingers 7.12502
lthumb 8.95683 52.5733
rfemur 7.11359 6.59381 24.8653
rtibia 21.015
rfoot 3.07731 -1.77465
rtoes -17.5197
lfemur -56.2481 4.85686 -14.7412
ltibia 70.0582
lfoot -16.1087 -6.60716
ltoes -16.316
18
root 0.617676 16.3154 -29.6976 21.4666 -5.73441 -4.53151
lowerback 11.4354 3.25883 2.17037
upperback 0.665311 4.66476 1.21234
thorax -5.63357 2.24492 -0.694744
lowerneck -15.4295 -4.86899 -9.81414
upperneck 6.28866 -5.6187 10.1109
head 4.96796 -2.37318 4.26626
rclavicle -5.56597e-015 -7.55382e-015
rhumerus -36.2279 13.1195 -93.3241
rradius 89.8708
rwrist -12.5739
rhand -15.5275 24.1907
rfingers 7.12502
rthumb 10.656 -5.51909
lclavicle -5.56597e-015 -7.55382e-015
lhumerus -59.0578 -1.28338 85.1776
lradius 84.7339
lwrist 10.9044
lhand -17.2928 21.6002
lfingers 7.12502
lthumb 8.95277 51.3902
rfemur 6.01756 6.66304 24.8556
rtibia 24.0108
rfoot 5.04999 -1.59904
rtoes -16.5901
lfemur -55.5428 4.66675 -15.096
ltibia 70.9309
lfoot -16.9855 -6.12171
ltoes -15.3347
19
root 0.638904 16.2571 -29.461 21.0242 -5.51512 -4.36369
lowerback 10.9846 3.12478 2.21614
upperback 1.30322 4.45626 1.18758
thorax -4.71067 2.15959 -0.662599
lowerneck -15.1863 -4.83307 -9.83325
upperneck 5.59597 -5.5761 10.426
head 4.72267 -2.34463 4.37684
rclavicle -4.94974e-014 3.57812e-015
rhumerus -35.8877 12.8003 -92.9076
rradius 89.3634
rwrist -12.7224
rhand -14.872 24.0257
rfingers 7.12502
rthumb 11.2882 -5.65058
lclavicle -4.94974e-014 3.57812e-015
lhumerus -57.5619 -1.3 85.2357
lradius 84.3104
lwrist 11.0576
lhand -17.6577 21.4269
lfingers 7.12502
lthumb 8.60072 51.2317
rfemur 5.31212 6.78532 24.7864
rtibia 27.3888
rfoot 6.9108 -1.39256
rtoes -13.5731
lfemur -54.235 4.21737 -15.4777
ltibia 71.4864
lfoot -18.4018 -5.47927
ltoes -14.6419
20
root 0.649726 16.2256 -29.2014 20.5535 -5.10494 -4.02822
lowerback 12.4841 2.88981 1.48546
upperback 0.652283 4.1304 1.49335
thorax -6.31549 1.99361 0.00622945
lowerneck -15.1965 -4.67281 -10.1025
upperneck 6.41611 -5.35465 10.379
head 4.95958 -2.24022 4.42905
rclavicle 7.35503e-014 2.62396e-014
rhumerus -37.8985 12.5607 -92.7033
rradius 89.0044
rwrist -12.583
rhand -13.9252 23.8619
rfingers 7.12502
rthumb 12.2012 -5.76225
lclavicle 7.35503e-014 2.62396e-014
lhumerus -58.1348 -1.07147 85.6829
lradius 84.2615
lwrist 11.1109
lhand -18.1631 22.2527
lfingers 7.12502
lthumb 8.1129 52.0769
rfemur 4.29156 6.75133 24.684
rtibia 31.0376
rfoot 8.71212 -1.41292
rtoes -9.82663
lfemur -52.5392 3.55991 -15.9497
ltibia 71.4561
lfoot -19.9778 -4.42956
ltoes -15.8783
21
root 0.660319 16.1857 -28.9554 20.5945 -5.2658 -3.96796
lowerback 12.9178 2.875 0.842364
upperback 0.377891 4.05246 1.72276
thorax -6.91327 1.9724 0.589867
lowerneck -15.4031 -4.53143 -10.1918
upperneck 6.56695 -5.13339 10.3514
head 5.01774 -2.12957 4.45545
rclavicle -1.61016e-014 1.86858e-014
rhumerus -39.1154 12.1762 -92.3539
rradius 88.4014
rwrist -12.1808
rhand -13.3456 23.8298
rfingers 7.12502
rthumb 12.7601 -5.76031
lclavicle -1.61016e-014 1.86858e-014
lhumerus -57.8116 -0.928239 86.1041
lradius 84.3972
lwrist 11.6138
lhand -18.6378 22.8573
lfingers 7.12502
lthumb 7.65476 52.6988
rfemur 2.45892 6.93736 24.438
rtibia 34.9164
rfoot 10.3532 -0.967658
rtoes -6.15487
lfemur -51.2587 3.48311 -16.2826
ltibia 71.2116
lfoot -20.8223 -2.8864
ltoes -20.481
22
root 0.669001 16.1398 -28.7044 20.4672 -5.50888 -3.42593
lowerback 12.3961 2.86505 0.127408
upperback 0.895089 3.90634 1.57981
thorax -6.10763 1.92516 0.906845
lowerneck -16.034 -4.5842 -10.1215
upperneck 6.18739 -5.16025 10.5626
head 5.01072 -2.11189 4.50275
rclavicle 1.90833e-014 -1.98785e-015
rhumerus -38.7264 11.3771 -92.0341
rradius 87.081
rwrist -11.5515
rhand -13.7929 24.407
rfingers 7.12502
rthumb 12.3288 -5.2095
lclavicle 1.90833e-014 -1.98785e-015
lhumerus -56.2371 -1.19362 86.2494
lradius 84.5523
lwrist 12.1703
lhand -18.682 22.8245
lfingers 7.12502
lthumb 7.61207 52.6675
rfemur 0.646896 7.08148 23.7299
rtibia 39.1113
rfoot 11.3084 -0.394264
rtoes -2.61135
lfemur -49.6585 3.16944 -17.0335
ltibia 70.8072
lfoot -22.2688 -1.71861
ltoes -22.7379
23
root 0.672859 16.0909 -28.4603 20.1237 -5.709 -2.80533
lowerback 10.7207 2.8376 -0.482726
upperback 2.47462 3.74487 1.38213
thorax -3.54391 1.85486 1.19612
lowerneck -16.9966 -4.73951 -10.054
upperneck 4.93804 -5.2444 10.8652
head 4.79636 -2.1134 4.56958
rclavicle -4.77083e-015 8.74653e-015
rhumerus -36.7786 10.467 -91.4252
rradius 84.3022
rwrist -9.28757
rhand -15.8319 27.26
rfingers 7.12502
rthumb 10.3623 -2.46473
lclavicle -4.77083e-015 8.74653e-015
lhumerus -52.8797 -1.48692 86.324
lradius 84.4587
lwrist 12.4114
lhand -18.649 23.0885
lfingers 7.12502
lthumb 7.64395 52.9304
rfemur -1.03292 7.23605 23.0434
rtibia 43.5097
rfoot 11.2562 0.111119
rtoes -1.57565
lfemur -47.8664 2.72115 -17.7268
ltibia 70.3459
lfoot -23.8226 -1.31589
ltoes -23.0634
24
root 0.668457 16.0428 -28.2272 19.9448 -5.81106 -2.07471
lowerback 11.5591 2.53375 -1.05201
upperback 2.14332 3.25337 0.84903
thorax -4.33834 1.61808 0.985056
lowerneck -16.906 -4.51721 -9.75081
upperneck 4.91033 -5.05569 11.2354
head 4.76017 -1.99421 4.65956
rclavicle 3.8763e-014 1.35174e-014
rhumerus -37.8732 9.36324 -91.963
rradius 84.1766
rwrist -11.2407
rhand -13.3982 25.1732
rfingers 7.12502
rthumb 12.7093 -4.42005
lclavicle 3.8763e-014 1.35174e-014
lhumerus -52.255 -1.8178 85.6728
lradius 84.6882
lwrist 12.8346
lhand -18.7201 24.2165
lfingers 7.12502
lthumb 7.57532 54.0609
rfemur -3.12716 7.3167 22.2772
rtibia 48.0382
rfoot 10.6362 0.535312
rtoes -1.6868
lfemur -46.3708 2.12098 -18.4187
ltibia 69.7855
lfoot -25.214 -1.53087
ltoes -21.5916
25
root 0.663945 15.9911 -27.9996 19.8669 -5.70445 -1.27726
lowerback 12.0678 2.27089 -1.83436
upperback 2.00478 2.78747 0.565678
thorax -4.77388 1.40068 1.17869
lowerneck -16.9825 -4.40647 -9.55661
upperneck 4.74229 -4.94198 11.3522
head 4.70831 -1.92657 4.67597
rclavicle -3.57812e-015 6.55989e-015
rhumerus -38.6758 8.27076 -92.0017
rradius 82.0959
rwrist -9.70091
rhand -15.0488 27.4417
rfingers 7.12502
rthumb 11.1177 -2.24379
lclavicle -3.57812e-015 6.55989e-015
lhumerus -51.2101 -2.35029 85.541
lradius 85.1233
lwrist 13.4865
lhand -19.2249 25.3771
lfingers 7.12502
lthumb 7.08809 55.2384
rfemur -5.46614 7.2568 21.4899
rtibia 52.6875
rfoot 9.51528 1.17183
rtoes -1.05175
lfemur -45.0267 1.28359 -19.0966
ltibia 69.2481
lfoot -26.0732 -0.980473
ltoes -24.4446
26
root 0.662414 15.9386 -27.7722 19.8576 -5.52779 -0.424836
lowerback 12.3457 2.00887 -2.6587
upperback 1.94315 2.31534 0.338591
thorax -4.99736 1.18298 1.47234
lowerneck -17.0067 -4.29336 -9.40579
upperneck 4.50596 -4.8068 11.3932
head 4.62317 -1.85654 4.67717
rclavicle -1.799e-014 3.18055e-015
rhumerus -39.3804 7.02549 -91.7859
rradius 80.6526
rwrist -9.4336
rhand -16.0106 27.4989
rfingers 7.12502
rthumb 10.1899 -2.23428
lclavicle -1.799e-014 3.18055e-015
lhumerus -50.003 -2.89539 85.4761
lradius 85.6413
lwrist 14.33
lhand -20.0977 24.8871
lfingers 7.12502
lthumb 6.24553 54.775
rfemur -7.94444 7.09228 20.5977
rtibia 57.3935
rfoot 8.16201 2.07412
rtoes -0.717526
lfemur -43.8235 0.447465 -19.8621
ltibia 68.7649
lfoot -26.9334 -0.458192
ltoes -26.8236
27
root 0.65968 15.8827 -27.5519 20.2012 -5.8912 0.118746
lowerback 12.1919 1.89937 -3.48064
upperback 1.8752 2.05843 0.164636
thorax -4.99371 1.07081 1.79903
lowerneck -17.0419 -4.17671 -9.3501
upperneck 4.04171 -4.6302 11.4569
head 4.46842 -1.76911 4.7046
rclavicle 2.48978e-014 -1.45113e-014
rhumerus -39.9192 5.88495 -91.4682
rradius 79.0694
rwrist -9.35345
rhand -16.9381 28.1222
rfingers 7.12502
rthumb 9.29509 -1.65286
lclavicle 2.48978e-014 -1.45113e-014
lhumerus -48.4584 -3.3581 85.3532
lradius 85.8545
lwrist 15.4856
lhand -20.9267 23.2513
lfingers 7.12502
lthumb 5.44515 53.1613
rfemur -11.0528 7.43889 19.7036
rtibia 61.9506
rfoot 7.02539 3.03495
rtoes -2.3084
lfemur -42.9955 0.179358 -20.5474
ltibia 68.2787
lfoot -27.7264 0.233003
ltoes -27.9308
28
root 0.658885 15.8411 -27.3327 21.2415 -7.0645 0.286409
lowerback 11.4015 2.09574 -4.32428
upperback 1.61464 2.234 -0.00627101
thorax -4.86537 1.17312 2.0834
lowerneck -17.1454 -4.10675 -9.39032
upperneck 3.5549 -4.49604 11.603
head 4.32719 -1.69773 4.76963
rclavicle 5.56597e-015 7.45443e-015
rhumerus -40.5628 4.67139 -90.9393
rradius 77.2122
rwrist -9.17892
rhand -18.946 29.7182
rfingers 7.12502
rthumb 7.3573 -0.133918
lclavicle 5.56597e-015 7.45443e-015
lhumerus -46.736 -4.01039 85.2806
lradius 85.9793
lwrist 16.9144
lhand -21.5994 22.2098
lfingers 7.12502
lthumb 4.79556 52.1355
rfemur -15.3714 8.53024 18.6539
rtibia 66.5219
rfoot 6.42322 4.23576
rtoes -4.76322
lfemur -42.8762 0.728565 -21.2384
ltibia 67.8673
lfoot -28.4446 0.989894
ltoes -28.5995
29
root 0.643607 15.8156 -27.0743 20.2084 -5.48808 1.42365
lowerback 12.6015 1.37606 -4.80094
upperback 1.83165 1.15845 -0.0766203
thorax -5.23292 0.656379 2.43381
lowerneck -16.8908 -3.98248 -9.44373
upperneck 3.11029 -4.32066 11.7925
head 4.14017 -1.6145 4.85624
rclavicle -9.54166e-015 1.2424e-015
rhumerus -41.5587 3.52787 -90.3482
rradius 75.1864
rwrist -8.83374
rhand -21.9872 31.8213
rfingers 7.12502
rthumb 4.42115 1.88745
lclavicle -9.54166e-015 1.2424e-015
lhumerus -45.1572 -4.68384 85.143
lradius 86.2935
lwrist 18.3957
lhand -22.1747 21.9602
lfingers 7.12502
lthumb 4.24008 51.8977
rfemur -16.3941 7.0543 18.2774
rtibia 70.4673
rfoot 5.10455 5.08426
rtoes -8.24639
lfemur -40.3907 -1.08961 -21.9142
ltibia 67.2015
lfoot -29.2649 1.39001
ltoes -28.881
30
root 0.635858 15.7573 -26.8605 20.4062 -5.66218 1.52226
lowerback 12.7127 1.29154 -5.04344
upperback 1.89625 1.0038 -0.166557
thorax -5.21632 0.582666 2.50174
lowerneck -17.3794 -3.95728 -9.51326
upperneck 2.95999 -4.24916 12.1053
head 4.17556 -1.54953 4.97326
rclavicle -2.23633e-015 -1.29272e-014
rhumerus -42.1959 2.36214 -89.7679
rradius 73.5821
rwrist -7.552
rhand -25.3048 32.7669
rfingers 7.12502
rthumb 1.21715 2.79062
lclavicle -2.23633e-015 -1.29272e-014
lhumerus -43.1069 -5.5203 84.9028
lradius 86.7186
lwrist 19.5644
lhand -22.772 21.1328
lfingers 7.12502
lthumb 3.66328 51.0811
rfemur -19.5901 7.14054 17.8944
rtibia 74.5767
rfoot 4.37835 6.2478
rtoes -10.0009
lfemur -39.5018 -1.1658 -22.2126
ltibia 66.7334
lfoot -29.7129 1.98778
ltoes -28.6454
